<svg width="55" height="61" viewBox="0 0 55 61" fill="none" xmlns="http://www.w3.org/2000/svg">
<path d="M23.3379 1.855L3.01884 17.2133C1.32558 18.5103 0.309631 20.5239 0.309631 22.6741V53.3907C0.309631 57.145 3.35749 60.2167 7.08264 60.2167H47.7207C51.4459 60.2167 54.4937 57.145 54.4937 53.3907V22.6741C54.4937 20.5239 53.4778 18.5103 51.7845 17.2133L31.4655 1.855C29.0611 0.0461345 25.7423 0.0461345 23.3379 1.855ZM29.0949 31.2065C29.0949 34.0392 26.826 36.3259 24.0152 36.3259V48.2713C24.0152 49.2269 23.2701 49.9778 22.3219 49.9778C21.3737 49.9778 20.6287 49.2269 20.6287 48.2713V36.3259C17.8179 36.3259 15.5489 34.0392 15.5489 31.2065V22.6741C15.5489 21.7185 16.2939 20.9676 17.2422 20.9676C18.1904 20.9676 18.9354 21.7185 18.9354 22.6741V31.2065H20.6287V22.6741C20.6287 21.7185 21.3737 20.9676 22.3219 20.9676C23.2701 20.9676 24.0152 21.7185 24.0152 22.6741V31.2065H25.7084V22.6741C25.7084 21.7185 26.4534 20.9676 27.4017 20.9676C28.3499 20.9676 29.0949 21.7185 29.0949 22.6741V31.2065ZM35.8679 49.9778C34.9197 49.9778 34.1747 49.2269 34.1747 48.2713V38.0324H32.4814C31.5332 38.0324 30.7882 37.2816 30.7882 36.3259V27.7935C30.7882 24.7901 32.7185 22.2304 35.3938 21.343C36.4436 20.9676 37.5612 21.8208 37.5612 22.9812V48.2713C37.5612 49.2269 36.8162 49.9778 35.8679 49.9778Z" fill="white"/>
<path d="M3.32148 17.6113C3.32195 17.611 3.32241 17.6106 3.32287 17.6103L23.6385 2.25456C23.6387 2.25439 23.6389 2.25423 23.6391 2.25406C25.8652 0.579783 28.9381 0.579783 31.1642 2.25406C31.1644 2.25423 31.1647 2.25439 31.1649 2.25456L51.4805 17.6103C51.4809 17.6106 51.4814 17.611 51.4818 17.6113C53.053 18.8154 53.9937 20.6829 53.9937 22.6741V53.3907C53.9937 56.8725 51.166 59.7167 47.7207 59.7167H7.08264C3.63729 59.7167 0.809631 56.8725 0.809631 53.3907V22.6741C0.809631 20.6829 1.75036 18.8154 3.32148 17.6113ZM24.5152 30.7065V22.6741C24.5152 21.446 23.5499 20.4676 22.3219 20.4676C21.0939 20.4676 20.1287 21.446 20.1287 22.6741V30.7065H19.4354V22.6741C19.4354 21.446 18.4702 20.4676 17.2422 20.4676C16.0141 20.4676 15.0489 21.446 15.0489 22.6741V31.2065C15.0489 34.1424 17.2739 36.5499 20.1287 36.8038V48.2713C20.1287 49.4994 21.0939 50.4778 22.3219 50.4778C23.5499 50.4778 24.5152 49.4994 24.5152 48.2713V36.8038C27.3699 36.5499 29.5949 34.1424 29.5949 31.2065V22.6741C29.5949 21.446 28.6297 20.4676 27.4017 20.4676C26.1736 20.4676 25.2084 21.446 25.2084 22.6741V30.7065H24.5152ZM33.6747 48.2713C33.6747 49.4994 34.6399 50.4778 35.8679 50.4778C37.096 50.4778 38.0612 49.4994 38.0612 48.2713V22.9812C38.0612 21.5182 36.6427 20.3699 35.2312 20.8702C32.3558 21.8264 30.2882 24.5747 30.2882 27.7935V36.3259C30.2882 37.554 31.2534 38.5324 32.4814 38.5324H33.6747V48.2713Z" stroke="black" stroke-opacity="0.61"/>
</svg>
