<svg width="76" height="76" viewBox="0 0 76 76" fill="none" xmlns="http://www.w3.org/2000/svg">
<path d="M34.2 12.35L15.2 26.6C13.6167 27.8033 12.6667 29.6717 12.6667 31.6667V60.1667C12.6667 63.65 15.5167 66.5 19 66.5H57C60.4833 66.5 63.3333 63.65 63.3333 60.1667V31.6667C63.3333 29.6717 62.3834 27.8033 60.8 26.6L41.8 12.35C39.5517 10.6717 36.4484 10.6717 34.2 12.35ZM39.5834 39.5833C39.5834 42.2117 37.4617 44.3333 34.8334 44.3333V55.4167C34.8334 56.3033 34.1367 57 33.25 57C32.3634 57 31.6667 56.3033 31.6667 55.4167V44.3333C29.0384 44.3333 26.9167 42.2117 26.9167 39.5833V31.6667C26.9167 30.78 27.6134 30.0833 28.5 30.0833C29.3867 30.0833 30.0834 30.78 30.0834 31.6667V39.5833H31.6667V31.6667C31.6667 30.78 32.3634 30.0833 33.25 30.0833C34.1367 30.0833 34.8334 30.78 34.8334 31.6667V39.5833H36.4167V31.6667C36.4167 30.78 37.1133 30.0833 38 30.0833C38.8867 30.0833 39.5834 30.78 39.5834 31.6667V39.5833ZM45.9167 57C45.03 57 44.3333 56.3033 44.3333 55.4167V45.9167H42.75C41.8633 45.9167 41.1667 45.22 41.1667 44.3333V36.4167C41.1667 33.63 42.9717 31.255 45.4733 30.4317C46.455 30.0833 47.5 30.875 47.5 31.9517V55.4167C47.5 56.3033 46.8033 57 45.9167 57Z" fill="black"/>
<path d="M15.5013 26.999C15.5017 26.9987 15.5021 26.9984 15.5026 26.9981L34.4991 12.7507C36.57 11.2048 39.43 11.2048 41.5009 12.7507L60.4975 26.9981C60.4979 26.9984 60.4984 26.9987 60.4988 26.9991C61.9599 28.1102 62.8333 29.8322 62.8333 31.6667V60.1667C62.8333 63.3739 60.2072 66 57 66H19C15.7928 66 13.1667 63.3739 13.1667 60.1667V31.6667C13.1667 29.8322 14.0402 28.1101 15.5013 26.999ZM35.3334 39.0833V31.6667C35.3334 30.5039 34.4128 29.5833 33.25 29.5833C32.0872 29.5833 31.1667 30.5039 31.1667 31.6667V39.0833H30.5834V31.6667C30.5834 30.5039 29.6628 29.5833 28.5 29.5833C27.3372 29.5833 26.4167 30.5039 26.4167 31.6667V39.5833C26.4167 42.3191 28.4977 44.559 31.1667 44.8099V55.4167C31.1667 56.5795 32.0872 57.5 33.25 57.5C34.4128 57.5 35.3334 56.5795 35.3334 55.4167V44.8099C38.0023 44.559 40.0834 42.3191 40.0834 39.5833V31.6667C40.0834 30.5039 39.1628 29.5833 38 29.5833C36.8372 29.5833 35.9167 30.5039 35.9167 31.6667V39.0833H35.3334ZM43.8333 55.4167C43.8333 56.5795 44.7539 57.5 45.9167 57.5C47.0795 57.5 48 56.5795 48 55.4167V31.9517C48 30.5669 46.6497 29.4881 45.3118 29.9584C42.6116 30.8496 40.6667 33.412 40.6667 36.4167V44.3333C40.6667 45.4961 41.5872 46.4167 42.75 46.4167H43.8333V55.4167Z" stroke="black" stroke-opacity="0.61"/>
</svg>
